<svg width="37" height="38" viewBox="0 0 37 38" fill="none" xmlns="http://www.w3.org/2000/svg">
<path d="M6.29871 26.1934C6.0103 26.1934 5.7219 26.0872 5.49421 25.8595C5.05401 25.4193 5.05401 24.6907 5.49421 24.2505L23.6333 6.1114C24.0735 5.6712 24.8021 5.6712 25.2423 6.1114C25.6825 6.55159 25.6825 7.28019 25.2423 7.72039L7.1032 25.8747C6.89069 26.0872 6.58711 26.1934 6.29871 26.1934Z" fill="white"/>
<path d="M17.1815 29.8363C16.8931 29.8363 16.6047 29.73 16.377 29.5023C15.9368 29.0621 15.9368 28.3335 16.377 27.8933L18.1985 26.0718C18.6387 25.6317 19.3673 25.6317 19.8075 26.0718C20.2477 26.512 20.2477 27.2406 19.8075 27.6808L17.986 29.5023C17.7735 29.7148 17.4851 29.8363 17.1815 29.8363Z" fill="white"/>
<path d="M21.2675 25.753C20.9791 25.753 20.6906 25.6467 20.463 25.419C20.0228 24.9788 20.0228 24.2502 20.463 23.81L24.0908 20.1822C24.531 19.742 25.2596 19.742 25.6998 20.1822C26.14 20.6224 26.14 21.351 25.6998 21.7912L22.072 25.419C21.8594 25.6315 21.5559 25.753 21.2675 25.753Z" fill="white"/>
<path d="M17.1842 35.4826C15.6966 35.4826 14.2091 34.5719 12.4027 32.7656L4.94976 25.3126C1.32194 21.6848 1.33712 19.3472 4.9953 15.689L15.0743 5.61005C18.7324 1.95187 21.07 1.93669 24.6979 5.56451L32.1508 13.0175C35.7786 16.6453 35.7635 18.9829 32.1053 22.6411L22.0263 32.72C20.1896 34.5567 18.6869 35.4826 17.1842 35.4826ZM19.9164 5.12431C19.1271 5.12431 18.1253 5.77702 16.6833 7.21904L6.60429 17.298C5.16227 18.74 4.50957 19.7419 4.50957 20.516C4.50957 21.3053 5.11673 22.2616 6.55875 23.7036L14.0117 31.1566C15.4537 32.5986 16.3949 33.2058 17.1842 33.2058C17.1842 33.2058 17.1842 33.2058 17.1994 33.2058C17.9887 33.2058 18.9753 32.5531 20.4173 31.111L30.4963 21.0321C31.9383 19.5901 32.591 18.5882 32.591 17.8141C32.591 17.0248 31.9839 16.0685 30.5418 14.6265L23.0889 7.1735C21.662 5.73148 20.7057 5.12431 19.9164 5.12431Z" fill="white"/>
<path d="M33.7272 35.4829H3.36891C2.74656 35.4829 2.23047 34.9668 2.23047 34.3445C2.23047 33.7221 2.74656 33.2061 3.36891 33.2061H33.7272C34.3496 33.2061 34.8657 33.7221 34.8657 34.3445C34.8657 34.9668 34.3496 35.4829 33.7272 35.4829Z" fill="white"/>
</svg>
