<svg width="33" height="34" viewBox="0 0 33 34" fill="none" xmlns="http://www.w3.org/2000/svg">
<path d="M15.4357 31.6351H10.2908C4.34705 31.6351 1.69336 28.9814 1.69336 23.0377V17.8928C1.69336 11.9491 4.34705 9.29541 10.2908 9.29541H14.3525C14.9076 9.29541 15.368 9.75574 15.368 10.3109C15.368 10.866 14.9076 11.3263 14.3525 11.3263H10.2908C5.44372 11.3263 3.72424 13.0458 3.72424 17.8928V23.0377C3.72424 27.8848 5.44372 29.6042 10.2908 29.6042H15.4357C20.2827 29.6042 22.0022 27.8848 22.0022 23.0377V18.976C22.0022 18.4208 22.4625 17.9605 23.0176 17.9605C23.5727 17.9605 24.0331 18.4208 24.0331 18.976V23.0377C24.0331 28.9814 21.3794 31.6351 15.4357 31.6351Z" fill="#292D32"/>
<path d="M23.0165 19.9916H18.6839C14.8794 19.9916 13.3359 18.4481 13.3359 14.6436V10.3111C13.3359 9.90487 13.5796 9.52578 13.9587 9.37684C14.3378 9.21437 14.7711 9.30915 15.069 9.59347L23.7341 18.2586C24.0184 18.5429 24.1132 18.9897 23.9507 19.3688C23.8018 19.7479 23.4227 19.9916 23.0165 19.9916ZM15.3668 12.7617V14.6436C15.3668 17.3379 15.9896 17.9607 18.6839 17.9607H20.5659L15.3668 12.7617Z" fill="#292D32"/>
<path d="M21.1206 4.55676H15.7049C15.1498 4.55676 14.6895 4.09643 14.6895 3.54132C14.6895 2.98621 15.1498 2.52588 15.7049 2.52588H21.1206C21.6757 2.52588 22.136 2.98621 22.136 3.54132C22.136 4.09643 21.6757 4.55676 21.1206 4.55676Z" fill="#292D32"/>
<path d="M9.47833 8.61853C8.92322 8.61853 8.46289 8.1582 8.46289 7.60309C8.46289 4.80047 10.7375 2.52588 13.5401 2.52588H17.0874C17.6425 2.52588 18.1028 2.98621 18.1028 3.54132C18.1028 4.09643 17.6425 4.55676 17.0874 4.55676H13.5401C11.8612 4.55676 10.4938 5.92422 10.4938 7.60309C10.4938 8.1582 10.0334 8.61853 9.47833 8.61853Z" fill="#292D32"/>
<path d="M25.9803 24.8656C25.4252 24.8656 24.9648 24.4053 24.9648 23.8502C24.9648 23.295 25.4252 22.8347 25.9803 22.8347C27.5238 22.8347 28.7694 21.5756 28.7694 20.0456V11.6649C28.7694 11.1097 29.2297 10.6494 29.7848 10.6494C30.3399 10.6494 30.8002 11.1097 30.8002 11.6649V20.0456C30.8002 22.6993 28.634 24.8656 25.9803 24.8656Z" fill="#292D32"/>
<path d="M29.7855 12.6803H25.7237C22.1223 12.6803 20.6465 11.2045 20.6465 7.60304V3.54128C20.6465 3.1351 20.8902 2.756 21.2693 2.60707C21.6484 2.4446 22.0816 2.53937 22.3795 2.8237L30.503 10.9472C30.7874 11.2316 30.8821 11.6783 30.7197 12.0574C30.5707 12.4365 30.1916 12.6803 29.7855 12.6803ZM22.6774 5.99188V7.60304C22.6774 10.0807 23.246 10.6494 25.7237 10.6494H27.3349L22.6774 5.99188Z" fill="#292D32"/>
</svg>
