<svg width="37" height="37" viewBox="0 0 37 37" fill="none" xmlns="http://www.w3.org/2000/svg">
<path d="M23.1005 34.8153H13.9936C5.75182 34.8153 2.23047 31.294 2.23047 23.0522V13.9453C2.23047 5.70348 5.75182 2.18213 13.9936 2.18213H17.0292C17.6515 2.18213 18.1676 2.69819 18.1676 3.3205C18.1676 3.9428 17.6515 4.45886 17.0292 4.45886H13.9936C6.99643 4.45886 4.5072 6.94809 4.5072 13.9453V23.0522C4.5072 30.0493 6.99643 32.5386 13.9936 32.5386H23.1005C30.0977 32.5386 32.5869 30.0493 32.5869 23.0522V20.0165C32.5869 19.3942 33.103 18.8782 33.7253 18.8782C34.3476 18.8782 34.8636 19.3942 34.8636 20.0165V23.0522C34.8636 31.294 31.3423 34.8153 23.1005 34.8153Z" fill="white"/>
<path d="M13.2335 27.1351C12.3076 27.1351 11.4577 26.8012 10.8354 26.194C10.0916 25.4503 9.77288 24.3726 9.93984 23.2343L10.5925 18.6656C10.7139 17.7853 11.2907 16.6469 11.913 16.0246L23.8735 4.06418C26.8939 1.04371 29.9599 1.04371 32.9804 4.06418C34.6348 5.7186 35.3785 7.40339 35.2268 9.08817C35.0902 10.4542 34.3616 11.7899 32.9804 13.1559L21.0199 25.1164C20.3976 25.7387 19.2593 26.3155 18.3789 26.4369L13.8103 27.0895C13.613 27.1351 13.4157 27.1351 13.2335 27.1351ZM25.4823 5.67307L13.5219 17.6335C13.2335 17.9219 12.8996 18.5897 12.8389 18.9844L12.1862 23.553C12.1255 23.9932 12.2166 24.3575 12.4442 24.5851C12.6719 24.8128 13.0362 24.9039 13.4764 24.8432L18.045 24.1905C18.4396 24.1298 19.1227 23.7959 19.3959 23.5075L31.3563 11.547C32.3429 10.5605 32.859 9.68012 32.9348 8.8605C33.0259 7.87391 32.5099 6.82661 31.3563 5.65789C28.9278 3.22938 27.2582 3.9124 25.4823 5.67307Z" fill="white"/>
<path d="M30.4626 15.2046C30.3564 15.2046 30.2501 15.1894 30.1591 15.159C26.1672 14.0358 22.9949 10.8636 21.8718 6.87171C21.7048 6.26458 22.0539 5.64227 22.661 5.46013C23.2682 5.29317 23.8905 5.64227 24.0574 6.2494C24.9681 9.48236 27.5332 12.0475 30.7662 12.9582C31.3733 13.1251 31.7224 13.7626 31.5555 14.3698C31.4189 14.8858 30.9635 15.2046 30.4626 15.2046Z" fill="white"/>
</svg>
