<svg width="49" height="49" viewBox="0 0 49 49" fill="none" xmlns="http://www.w3.org/2000/svg">
<path d="M24.4738 46.1653C12.5356 46.1653 2.83203 36.4617 2.83203 24.5236C2.83203 12.5854 12.5356 2.88184 24.4738 2.88184C36.4119 2.88184 46.1155 12.5854 46.1155 24.5236C46.1155 36.4617 36.4119 46.1653 24.4738 46.1653ZM24.4738 5.90161C14.2065 5.90161 5.85181 14.2563 5.85181 24.5236C5.85181 34.7908 14.2065 43.1455 24.4738 43.1455C34.741 43.1455 43.0957 34.7908 43.0957 24.5236C43.0957 14.2563 34.741 5.90161 24.4738 5.90161Z" fill="#FFBE40"/>
<path d="M24.4741 26.5366C23.3467 26.5366 22.4609 25.6307 22.4609 24.5234C22.4609 23.4162 23.3669 22.5103 24.4741 22.5103C25.5814 22.5103 26.4873 23.4162 26.4873 24.5234C26.4873 25.6307 25.6015 26.5366 24.4741 26.5366Z" fill="#FFBE40"/>
<path d="M32.5269 26.5366C31.3995 26.5366 30.5137 25.6307 30.5137 24.5234C30.5137 23.4162 31.4196 22.5103 32.5269 22.5103C33.6341 22.5103 34.54 23.4162 34.54 24.5234C34.54 25.6307 33.6542 26.5366 32.5269 26.5366Z" fill="#FFBE40"/>
<path d="M16.4214 26.5366C15.294 26.5366 14.4082 25.6307 14.4082 24.5234C14.4082 23.4162 15.3141 22.5103 16.4214 22.5103C17.5286 22.5103 18.4346 23.4162 18.4346 24.5234C18.4346 25.6307 17.5488 26.5366 16.4214 26.5366Z" fill="#FFBE40"/>
</svg>
