<svg width="25" height="25" viewBox="0 0 25 25" fill="none" xmlns="http://www.w3.org/2000/svg">
<path d="M11.8672 22.1392C6.21719 22.1392 1.61719 17.5392 1.61719 11.8892C1.61719 6.23916 6.21719 1.63916 11.8672 1.63916C17.5172 1.63916 22.1172 6.23916 22.1172 11.8892C22.1172 17.5392 17.5172 22.1392 11.8672 22.1392ZM11.8672 3.13916C7.03719 3.13916 3.11719 7.06916 3.11719 11.8892C3.11719 16.7092 7.03719 20.6392 11.8672 20.6392C16.6972 20.6392 20.6172 16.7092 20.6172 11.8892C20.6172 7.06916 16.6972 3.13916 11.8672 3.13916Z" fill="#B2B2B2"/>
<path d="M22.3666 23.1391C22.1766 23.1391 21.9866 23.0691 21.8366 22.9191L19.8366 20.9191C19.5466 20.6291 19.5466 20.1491 19.8366 19.8591C20.1266 19.5691 20.6066 19.5691 20.8966 19.8591L22.8966 21.8591C23.1866 22.1491 23.1866 22.6291 22.8966 22.9191C22.7466 23.0691 22.5566 23.1391 22.3666 23.1391Z" fill="#B2B2B2"/>
</svg>
