<svg width="50" height="49" viewBox="0 0 50 49" fill="none" xmlns="http://www.w3.org/2000/svg">
<path d="M22.5647 31.2245C22.1621 31.2245 21.7795 31.0634 21.4977 30.7815L16.6254 25.9093C16.0415 25.3254 16.0415 24.359 16.6254 23.7751C17.2093 23.1913 18.1757 23.1913 18.7595 23.7751L22.5647 27.5803L31.2221 18.923C31.8059 18.3391 32.7723 18.3391 33.3562 18.923C33.9401 19.5069 33.9401 20.4733 33.3562 21.0571L23.6318 30.7815C23.3499 31.0634 22.9674 31.2245 22.5647 31.2245Z" fill="#25B070"/>
<path d="M25.0024 46.4859C23.734 46.4859 22.4656 46.0631 21.4791 45.2175L18.298 42.4794C17.9759 42.1975 17.1705 41.9156 16.7477 41.9156H13.2848C10.3051 41.9156 7.88907 39.4996 7.88907 36.5199V33.0771C7.88907 32.6543 7.60721 31.8691 7.32534 31.547L4.60734 28.3458C2.95641 26.3928 2.95641 23.3124 4.60734 21.3595L7.32534 18.1583C7.60721 17.8362 7.88907 17.051 7.88907 16.6282V13.1652C7.88907 10.1855 10.3051 7.76949 13.2848 7.76949H16.7679C17.1907 7.76949 17.996 7.46749 18.3181 7.20575L21.4992 4.46762C23.4723 2.77642 26.5527 2.77642 28.5257 4.46762L31.7068 7.20575C32.0289 7.48762 32.8343 7.76949 33.2571 7.76949H36.6797C39.6595 7.76949 42.0755 10.1855 42.0755 13.1652V16.5879C42.0755 17.0107 42.3775 17.816 42.6593 18.1382L45.3975 21.3192C47.0887 23.2923 47.0887 26.3727 45.3975 28.3458L42.6593 31.5268C42.3775 31.849 42.0755 32.6543 42.0755 33.0771V36.4998C42.0755 39.4795 39.6595 41.8955 36.6797 41.8955H33.2571C32.8343 41.8955 32.0289 42.1975 31.7068 42.4592L28.5257 45.1974C27.5392 46.0631 26.2708 46.4859 25.0024 46.4859ZM13.2848 10.7895C11.9761 10.7895 10.9091 11.8566 10.9091 13.1652V16.608C10.9091 17.7556 10.3655 19.2254 9.62054 20.0911L6.90254 23.2923C6.19787 24.1178 6.19787 25.5472 6.90254 26.3727L9.62054 29.5739C10.3655 30.4598 10.9091 31.9094 10.9091 33.057V36.4998C10.9091 37.8084 11.9761 38.8755 13.2848 38.8755H16.7679C17.9356 38.8755 19.4053 39.4191 20.2912 40.1842L23.4723 42.9223C24.2977 43.6269 25.7473 43.6269 26.5728 42.9223L29.7539 40.1842C30.6397 39.4392 32.1095 38.8755 33.2772 38.8755H36.6999C38.0085 38.8755 39.0756 37.8084 39.0756 36.4998V33.0771C39.0756 31.9094 39.6192 30.4396 40.3843 29.5538L43.1224 26.3727C43.8271 25.5472 43.8271 24.0976 43.1224 23.2722L40.3843 20.0911C39.6192 19.2052 39.0756 17.7355 39.0756 16.5678V13.1652C39.0756 11.8566 38.0085 10.7895 36.6999 10.7895H33.2772C32.1095 10.7895 30.6397 10.2459 29.7539 9.48082L26.5728 6.74269C25.7473 6.03802 24.2977 6.03802 23.4723 6.74269L20.2912 9.50095C19.4053 10.2459 17.9155 10.7895 16.7679 10.7895H13.2848Z" fill="#25B070"/>
</svg>
