<svg width="41" height="34" viewBox="0 0 41 34" fill="none" xmlns="http://www.w3.org/2000/svg">
<path d="M1.68524 15.2171C1.77604 15.1717 1.86688 15.1286 1.95541 15.0877C3.49445 14.3747 5.05392 13.7072 6.61112 13.0396C6.69511 13.0396 6.83581 12.9419 6.91526 12.9101C7.03557 12.8579 7.1559 12.808 7.27621 12.7558C7.50774 12.6558 7.73929 12.5582 7.96856 12.4583C8.43163 12.2607 8.8924 12.0632 9.35548 11.8657C10.2794 11.4706 11.2032 11.0755 12.1271 10.6781C13.9749 9.88796 15.8249 9.09547 17.6727 8.30528C19.5204 7.5151 21.3704 6.72266 23.2182 5.93248C25.066 5.14229 26.916 4.34985 28.7637 3.55967C30.6115 2.76949 32.4615 1.97705 34.3093 1.18686C34.7202 1.00975 35.1651 0.746353 35.6054 0.669152C35.9754 0.603303 36.3363 0.476167 36.7086 0.405778C37.4146 0.27181 38.1932 0.217306 38.8696 0.510218C39.1034 0.612397 39.3191 0.755418 39.4984 0.934799C40.3565 1.78402 40.2361 3.17822 40.0546 4.37258C38.7902 12.6967 37.5258 21.0232 36.2592 29.3473C36.0866 30.4895 35.8506 31.7428 34.9494 32.4649C34.1867 33.0757 33.1016 33.1438 32.1596 32.8849C31.2175 32.6238 30.3868 32.0766 29.5718 31.5385C26.1919 29.2996 22.8096 27.0608 19.4296 24.8219C18.6261 24.2906 17.7317 23.5958 17.7408 22.6308C17.7453 22.0495 18.0926 21.5317 18.4467 21.0708C21.3841 17.238 25.6221 14.6041 28.7751 10.9483C29.22 10.4329 29.5696 9.50196 28.959 9.2045C28.5958 9.02739 28.1781 9.26803 27.8466 9.49737C23.679 12.3924 19.5136 15.2898 15.346 18.1848C13.9862 19.1294 12.5607 20.1012 10.9218 20.3328C9.45539 20.5417 7.97992 20.133 6.56119 19.7152C5.37172 19.3656 4.18449 19.0068 3.00184 18.6367C2.37305 18.4414 1.72384 18.2302 1.23806 17.7875C0.752291 17.3447 0.473122 16.6 0.765948 16.0096C0.949816 15.6395 1.30621 15.4056 1.68075 15.2149L1.68524 15.2171Z" fill="white"/>
</svg>
