<svg width="49" height="49" viewBox="0 0 49 49" fill="none" xmlns="http://www.w3.org/2000/svg">
<path d="M24.4773 45.8003C12.5383 45.8003 2.83398 36.0961 2.83398 24.157C2.83398 12.2179 12.5383 2.51367 24.4773 2.51367C36.4164 2.51367 46.1207 12.2179 46.1207 24.157C46.1207 36.0961 36.4164 45.8003 24.4773 45.8003ZM24.4773 5.53367C14.2093 5.53367 5.85398 13.889 5.85398 24.157C5.85398 34.425 14.2093 42.7803 24.4773 42.7803C34.7453 42.7803 43.1007 34.425 43.1007 24.157C43.1007 13.889 34.7453 5.53367 24.4773 5.53367Z" fill="#25B070"/>
<path d="M21.6168 31.3649C21.2141 31.3649 20.8316 31.2038 20.5497 30.922L14.852 25.2242C14.2681 24.6404 14.2681 23.674 14.852 23.0901C15.4358 22.5062 16.4022 22.5062 16.9861 23.0901L21.6168 27.7208L31.9653 17.3722C32.5492 16.7884 33.5156 16.7884 34.0994 17.3722C34.6833 17.9561 34.6833 18.9225 34.0994 19.5064L22.6838 30.922C22.402 31.2038 22.0194 31.3649 21.6168 31.3649Z" fill="#25B070"/>
</svg>
