<svg width="37" height="38" viewBox="0 0 37 38" fill="none" xmlns="http://www.w3.org/2000/svg">
<path d="M16.81 23.8102C16.5064 23.8102 16.218 23.6887 16.0055 23.4762L12.3321 19.8029C11.8919 19.3627 11.8919 18.6341 12.3321 18.1939C12.7723 17.7537 13.5009 17.7537 13.9411 18.1939L16.81 21.0628L23.337 14.5357C23.7772 14.0955 24.5058 14.0955 24.946 14.5357C25.3862 14.9759 25.3862 15.7045 24.946 16.1447L17.6144 23.4762C17.4019 23.6887 17.1135 23.8102 16.81 23.8102Z" fill="white"/>
<path d="M18.6479 35.3164C17.6916 35.3164 16.7353 34.9976 15.9915 34.3601L13.5932 32.2957C13.3504 32.0832 12.7432 31.8707 12.4244 31.8707H9.81363C7.56711 31.8707 5.74561 30.0492 5.74561 27.8027V25.207C5.74561 24.8883 5.53311 24.2963 5.3206 24.0534L3.27141 21.6399C2.02672 20.1676 2.02672 17.8451 3.27141 16.3728L5.3206 13.9593C5.53311 13.7164 5.74561 13.1244 5.74561 12.8057V10.1948C5.74561 7.94832 7.56711 6.12682 9.81363 6.12682H12.4396C12.7584 6.12682 13.3656 5.89914 13.6084 5.70181L16.0067 3.63744C17.4943 2.36239 19.8167 2.36239 21.3043 3.63744L23.7026 5.70181C23.9454 5.91431 24.5526 6.12682 24.8714 6.12682H27.4518C29.6983 6.12682 31.5198 7.94832 31.5198 10.1948V12.7753C31.5198 13.0941 31.7475 13.7012 31.96 13.9441L34.0244 16.3424C35.2994 17.83 35.2994 20.1524 34.0244 21.6399L31.96 24.0382C31.7475 24.2811 31.5198 24.8883 31.5198 25.207V27.7875C31.5198 30.034 29.6983 31.8555 27.4518 31.8555H24.8714C24.5526 31.8555 23.9454 32.0832 23.7026 32.2805L21.3043 34.3449C20.5605 34.9976 19.6042 35.3164 18.6479 35.3164ZM9.81363 8.4037C8.82698 8.4037 8.02249 9.20819 8.02249 10.1948V12.7905C8.02249 13.6557 7.61265 14.7638 7.05102 15.4165L5.00183 17.83C4.47056 18.4523 4.47056 19.53 5.00183 20.1524L7.05102 22.5659C7.61265 23.2337 8.02249 24.3266 8.02249 25.1919V27.7875C8.02249 28.7741 8.82698 29.5786 9.81363 29.5786H12.4396C13.32 29.5786 14.4281 29.9885 15.096 30.5653L17.4943 32.6296C18.1166 33.1609 19.2095 33.1609 19.8319 32.6296L22.2302 30.5653C22.8981 30.0037 24.0062 29.5786 24.8865 29.5786H27.467C28.4536 29.5786 29.2581 28.7741 29.2581 27.7875V25.207C29.2581 24.3266 29.668 23.2186 30.2448 22.5507L32.3092 20.1524C32.8404 19.53 32.8404 18.4371 32.3092 17.8148L30.2448 15.4165C29.668 14.7486 29.2581 13.6405 29.2581 12.7601V10.1948C29.2581 9.20819 28.4536 8.4037 27.467 8.4037H24.8865C24.0062 8.4037 22.8981 7.99386 22.2302 7.41705L19.8319 5.35269C19.2095 4.82141 18.1166 4.82141 17.4943 5.35269L15.096 7.43223C14.4281 7.99386 13.3048 8.4037 12.4396 8.4037H9.81363Z" fill="white"/>
</svg>
