<svg width="35" height="34" viewBox="0 0 35 34" fill="none" xmlns="http://www.w3.org/2000/svg">
<path d="M22.7963 24.2595C16.1496 24.2595 10.7421 18.8485 10.7402 12.1999C10.7421 10.5145 12.114 9.14404 13.7952 9.14404C13.968 9.14404 14.1391 9.1586 14.3028 9.18772C14.6631 9.24778 15.0052 9.36973 15.3199 9.55355C15.3654 9.58085 15.3963 9.62456 15.4036 9.67553L16.106 14.1037C16.1151 14.1564 16.0987 14.2074 16.0641 14.2456C15.6766 14.6752 15.1816 14.9846 14.6303 15.1393L14.3647 15.2139L14.4648 15.4705C15.3709 17.7783 17.2159 19.622 19.5248 20.5321L19.7814 20.634L19.856 20.3683C20.0106 19.8168 20.3199 19.3217 20.7493 18.9341C20.7803 18.9049 20.8221 18.8904 20.864 18.8904C20.8731 18.8904 20.8822 18.8904 20.8931 18.8922L25.3199 19.5948C25.3727 19.6039 25.4164 19.633 25.4437 19.6785C25.6256 19.9933 25.7475 20.3373 25.8094 20.6977C25.8385 20.8578 25.8512 21.0271 25.8512 21.2036C25.8512 22.8872 24.4811 24.2577 22.7963 24.2595Z" fill="white"/>
<path d="M34.5828 15.2028C34.2244 11.1513 32.3685 7.39297 29.3572 4.62105C26.3277 1.83275 22.3976 0.296631 18.2873 0.296631C9.26619 0.296631 1.92632 7.63866 1.92632 16.6624C1.92632 19.691 2.76146 22.6413 4.34261 25.2112L0.816406 33.0192L12.1064 31.8161C14.0697 32.6206 16.1476 33.0282 18.2855 33.0282C18.8477 33.0282 19.4245 32.9991 20.0031 32.9391C20.5126 32.8844 21.0275 32.8044 21.5333 32.7025C29.0879 31.1755 34.6028 24.4686 34.6465 16.7498V16.6624C34.6465 16.171 34.6247 15.6796 34.581 15.2046L34.5828 15.2028ZM12.5413 28.3889L6.29496 29.0551L8.15995 24.9218L7.78694 24.4213C7.75965 24.3849 7.73236 24.3485 7.70143 24.3066C6.08207 22.0698 5.22689 19.4271 5.22689 16.6643C5.22689 9.46053 11.0857 3.59999 18.2873 3.59999C25.034 3.59999 30.7527 8.86539 31.3041 15.5868C31.3332 15.9472 31.3495 16.3093 31.3495 16.6661C31.3495 16.768 31.3477 16.8681 31.3459 16.9755C31.2076 23.0016 26.9991 28.1196 21.1112 29.4228C20.6618 29.5229 20.2014 29.5993 19.7429 29.6484C19.2662 29.703 18.7768 29.7303 18.2909 29.7303C16.5606 29.7303 14.8794 29.3955 13.2909 28.733C13.1145 28.662 12.9416 28.5855 12.7797 28.5073L12.5431 28.3926L12.5413 28.3889Z" fill="white"/>
</svg>
