<svg width="1920" height="118" viewBox="0 0 1920 118" fill="none" xmlns="http://www.w3.org/2000/svg">
<g clip-path="url(#clip0_2906_1402)">
<g clip-path="url(#clip1_2906_1402)">
<rect width="2162" height="2162" transform="translate(0 -1022.28)" fill="white"/>
<path d="M-1.29688 196.131L51.6721 281.427V155.269L-1.29688 69.9836V196.131Z" stroke="#191A23" stroke-width="12.1072" stroke-miterlimit="10"/>
<path d="M-1.29688 -15.3998L51.6721 69.9838V-56.303L-1.29688 -141.676V-15.3998Z" stroke="#191A23" stroke-width="12.1072" stroke-miterlimit="10"/>
<path d="M-54.0488 155.269V281.427L-1.29603 196.131V69.9834L-54.0488 155.269Z" stroke="#191A23" stroke-width="12.1072" stroke-miterlimit="10"/>
<path d="M-54.0488 -56.3033V69.9835L-1.29603 -15.4V-141.676L-54.0488 -56.3033Z" stroke="#191A23" stroke-width="12.1072" stroke-miterlimit="10"/>
<path d="M843.182 196.131L896.151 281.427V155.269L843.182 69.9836V196.131Z" stroke="#191A23" stroke-width="12.1072" stroke-miterlimit="10"/>
<path d="M843.182 -15.3998L896.151 69.9838V-56.303L843.182 -141.676V-15.3998Z" stroke="#191A23" stroke-width="12.1072" stroke-miterlimit="10"/>
<path d="M790.428 155.269V281.427L843.181 196.131V69.9836L790.428 155.269Z" stroke="#191A23" stroke-width="12.1072" stroke-miterlimit="10"/>
<path d="M790.428 -56.303V69.9838L843.181 -15.3998V-141.676L790.428 -56.303Z" stroke="#191A23" stroke-width="12.1072" stroke-miterlimit="10"/>
<path d="M420.941 196.131L473.91 281.427V155.269L420.941 69.9836V196.131Z" stroke="#191A23" stroke-width="12.1072" stroke-miterlimit="10"/>
<path d="M420.941 -15.3998L473.91 69.9838V-56.303L420.941 -141.676V-15.3998Z" stroke="#191A23" stroke-width="12.1072" stroke-miterlimit="10"/>
<path d="M368.189 155.269V281.427L420.942 196.131V69.9836L368.189 155.269Z" stroke="#191A23" stroke-width="12.1072" stroke-miterlimit="10"/>
<path d="M368.189 -56.303V69.9838L420.942 -15.3998V-141.676L368.189 -56.303Z" stroke="#191A23" stroke-width="12.1072" stroke-miterlimit="10"/>
<path d="M1265.64 196.131L1318.61 281.427V155.269L1265.64 69.9834V196.131Z" stroke="#191A23" stroke-width="12.1072" stroke-miterlimit="10"/>
<path d="M1265.64 -15.4L1318.61 69.9835V-56.3033L1265.64 -141.676V-15.4Z" stroke="#191A23" stroke-width="12.1072" stroke-miterlimit="10"/>
<path d="M1793.6 196.131L1846.56 281.427V155.269L1793.6 69.9836V196.131Z" stroke="#191A23" stroke-width="12.1072" stroke-miterlimit="10"/>
<path d="M1793.6 -15.3998L1846.56 69.9838V-56.303L1793.6 -141.676V-15.3998Z" stroke="#191A23" stroke-width="12.1072" stroke-miterlimit="10"/>
<path d="M1212.67 155.269V281.427L1265.64 196.131V69.9836L1212.67 155.269Z" stroke="#191A23" stroke-width="12.1072" stroke-miterlimit="10"/>
<path d="M1212.67 -56.303V69.9838L1265.64 -15.3998V-141.676L1212.67 -56.303Z" stroke="#191A23" stroke-width="12.1072" stroke-miterlimit="10"/>
<path d="M1740.84 155.269V281.427L1793.6 196.131V69.9834L1740.84 155.269Z" stroke="#191A23" stroke-width="12.1072" stroke-miterlimit="10"/>
<path d="M1740.84 -56.3033V69.9835L1793.6 -15.4V-141.676L1740.84 -56.3033Z" stroke="#191A23" stroke-width="12.1072" stroke-miterlimit="10"/>
<path d="M209.932 196.131L262.901 281.427V155.269L209.932 69.9836V196.131Z" stroke="#191A23" stroke-width="12.1072" stroke-miterlimit="10"/>
<path d="M209.932 -15.3998L262.901 69.9838V-56.303L209.932 -141.676V-15.3998Z" stroke="#191A23" stroke-width="12.1072" stroke-miterlimit="10"/>
<path d="M157.178 155.269V281.427L209.931 196.131V69.9836L157.178 155.269Z" stroke="#191A23" stroke-width="12.1072" stroke-miterlimit="10"/>
<path d="M157.178 -56.303V69.9838L209.931 -15.3998V-141.676L157.178 -56.303Z" stroke="#191A23" stroke-width="12.1072" stroke-miterlimit="10"/>
<path d="M1054.19 196.131L1107.38 281.427V155.269L1054.19 69.9836V196.131Z" stroke="#191A23" stroke-width="12.1072" stroke-miterlimit="10"/>
<path d="M1054.19 -15.3998L1107.38 69.9838V-56.303L1054.19 -141.676V-15.3998Z" stroke="#191A23" stroke-width="12.1072" stroke-miterlimit="10"/>
<path d="M1001.44 155.269V281.427L1054.19 196.131V69.9834L1001.44 155.269Z" stroke="#191A23" stroke-width="12.1072" stroke-miterlimit="10"/>
<path d="M1001.44 -56.3033V69.9835L1054.19 -15.4V-141.676L1001.44 -56.3033Z" stroke="#191A23" stroke-width="12.1072" stroke-miterlimit="10"/>
<path d="M632.17 196.131L685.139 281.427V155.269L632.17 69.9836V196.131Z" stroke="#191A23" stroke-width="12.1072" stroke-miterlimit="10"/>
<path d="M632.17 -15.3998L685.139 69.9838V-56.303L632.17 -141.676V-15.3998Z" stroke="#191A23" stroke-width="12.1072" stroke-miterlimit="10"/>
<path d="M579.201 155.269V281.427L632.17 196.131V69.9834L579.201 155.269Z" stroke="#191A23" stroke-width="12.1072" stroke-miterlimit="10"/>
<path d="M579.201 -56.3033V69.9835L632.17 -15.4V-141.676L579.201 -56.3033Z" stroke="#191A23" stroke-width="12.1072" stroke-miterlimit="10"/>
<path d="M1476.65 196.131L1529.62 281.427V155.269L1476.65 69.9834V196.131Z" stroke="#191A23" stroke-width="12.1072" stroke-miterlimit="10"/>
<path d="M1476.65 -15.4L1529.62 69.9835V-56.3033L1476.65 -141.676V-15.4Z" stroke="#191A23" stroke-width="12.1072" stroke-miterlimit="10"/>
<path d="M1423.68 155.269V281.427L1476.65 196.131V69.9836L1423.68 155.269Z" stroke="#191A23" stroke-width="12.1072" stroke-miterlimit="10"/>
<path d="M1423.68 -56.303V69.9838L1476.65 -15.3998V-141.676L1423.68 -56.303Z" stroke="#191A23" stroke-width="12.1072" stroke-miterlimit="10"/>
<path d="M104.426 196.131L157.395 281.427V155.269L104.426 69.9834V196.131Z" stroke="#191A23" stroke-width="12.1072" stroke-miterlimit="10"/>
<path d="M104.426 -15.4L157.395 69.9835V-56.3033L104.426 -141.676V-15.4Z" stroke="#191A23" stroke-width="12.1072" stroke-miterlimit="10"/>
<path d="M51.6738 155.269V281.427L104.427 196.131V69.9836L51.6738 155.269Z" stroke="#191A23" stroke-width="12.1072" stroke-miterlimit="10"/>
<path d="M51.6738 -56.303V69.9838L104.427 -15.3998V-141.676L51.6738 -56.303Z" stroke="#191A23" stroke-width="12.1072" stroke-miterlimit="10"/>
<path d="M949.119 196.131L1001.87 281.427V155.269L949.119 69.9834V196.131Z" stroke="#191A23" stroke-width="12.1072" stroke-miterlimit="10"/>
<path d="M949.119 -15.4L1001.87 69.9835V-56.3033L949.119 -141.676V-15.4Z" stroke="#191A23" stroke-width="12.1072" stroke-miterlimit="10"/>
<path d="M896.15 155.269V281.427L949.119 196.131V69.9836L896.15 155.269Z" stroke="#191A23" stroke-width="12.1072" stroke-miterlimit="10"/>
<path d="M896.15 -56.303V69.9838L949.119 -15.3998V-141.676L896.15 -56.303Z" stroke="#191A23" stroke-width="12.1072" stroke-miterlimit="10"/>
<path d="M526.664 196.131L579.633 281.427V155.269L526.664 69.9836V196.131Z" stroke="#191A23" stroke-width="12.1072" stroke-miterlimit="10"/>
<path d="M526.664 -15.3998L579.633 69.9838V-56.303L526.664 -141.676V-15.3998Z" stroke="#191A23" stroke-width="12.1072" stroke-miterlimit="10"/>
<path d="M473.912 155.269V281.427L526.665 196.131V69.9834L473.912 155.269Z" stroke="#191A23" stroke-width="12.1072" stroke-miterlimit="10"/>
<path d="M473.912 -56.3033V69.9835L526.665 -15.4V-141.676L473.912 -56.3033Z" stroke="#191A23" stroke-width="12.1072" stroke-miterlimit="10"/>
<path d="M1371.14 196.131L1424.11 281.427V155.269L1371.14 69.9836V196.131Z" stroke="#191A23" stroke-width="12.1072" stroke-miterlimit="10"/>
<path d="M1371.14 -15.3998L1424.11 69.9838V-56.303L1371.14 -141.676V-15.3998Z" stroke="#191A23" stroke-width="12.1072" stroke-miterlimit="10"/>
<path d="M1899.32 196.131L1952.29 281.427V155.269L1899.32 69.9834V196.131Z" stroke="#191A23" stroke-width="12.1072" stroke-miterlimit="10"/>
<path d="M1899.32 -15.4L1952.29 69.9835V-56.3033L1899.32 -141.676V-15.4Z" stroke="#191A23" stroke-width="12.1072" stroke-miterlimit="10"/>
<path d="M1318.39 155.269V281.427L1371.14 196.131V69.9836L1318.39 155.269Z" stroke="#191A23" stroke-width="12.1072" stroke-miterlimit="10"/>
<path d="M1318.39 -56.303V69.9838L1371.14 -15.3998V-141.676L1318.39 -56.303Z" stroke="#191A23" stroke-width="12.1072" stroke-miterlimit="10"/>
<path d="M1846.35 155.269V281.427L1899.32 196.131V69.9836L1846.35 155.269Z" stroke="#191A23" stroke-width="12.1072" stroke-miterlimit="10"/>
<path d="M1846.35 -56.303V69.9838L1899.32 -15.3998V-141.676L1846.35 -56.303Z" stroke="#191A23" stroke-width="12.1072" stroke-miterlimit="10"/>
<path d="M315.438 196.131L368.623 281.427V155.269L315.438 69.9836V196.131Z" stroke="#191A23" stroke-width="12.1072" stroke-miterlimit="10"/>
<path d="M315.438 -15.3998L368.623 69.9838V-56.303L315.438 -141.676V-15.3998Z" stroke="#191A23" stroke-width="12.1072" stroke-miterlimit="10"/>
<path d="M262.686 155.269V281.427L315.438 196.131V69.9836L262.686 155.269Z" stroke="#191A23" stroke-width="12.1072" stroke-miterlimit="10"/>
<path d="M262.686 -56.303V69.9838L315.438 -15.3998V-141.676L262.686 -56.303Z" stroke="#191A23" stroke-width="12.1072" stroke-miterlimit="10"/>
<path d="M1160.13 196.131L1212.88 281.427V155.269L1160.13 69.9834V196.131Z" stroke="#191A23" stroke-width="12.1072" stroke-miterlimit="10"/>
<path d="M1160.13 -15.4L1212.88 69.9835V-56.3033L1160.13 -141.676V-15.4Z" stroke="#191A23" stroke-width="12.1072" stroke-miterlimit="10"/>
<path d="M1688.31 196.131L1741.06 281.427V155.269L1688.31 69.9836V196.131Z" stroke="#191A23" stroke-width="12.1072" stroke-miterlimit="10"/>
<path d="M1688.31 -15.3998L1741.06 69.9838V-56.303L1688.31 -141.676V-15.3998Z" stroke="#191A23" stroke-width="12.1072" stroke-miterlimit="10"/>
<path d="M1107.16 155.269V281.427L1160.13 196.131V69.9836L1107.16 155.269Z" stroke="#191A23" stroke-width="12.1072" stroke-miterlimit="10"/>
<path d="M1107.16 -56.303V69.9838L1160.13 -15.3998V-141.676L1107.16 -56.303Z" stroke="#191A23" stroke-width="12.1072" stroke-miterlimit="10"/>
<path d="M1635.12 155.269V281.427L1688.31 196.131V69.9834L1635.12 155.269Z" stroke="#191A23" stroke-width="12.1072" stroke-miterlimit="10"/>
<path d="M1635.12 -56.3033V69.9835L1688.31 -15.4V-141.676L1635.12 -56.3033Z" stroke="#191A23" stroke-width="12.1072" stroke-miterlimit="10"/>
<path d="M737.893 196.131L790.645 281.427V155.269L737.893 69.9836V196.131Z" stroke="#191A23" stroke-width="12.1072" stroke-miterlimit="10"/>
<path d="M737.893 -15.3998L790.645 69.9838V-56.303L737.893 -141.676V-15.3998Z" stroke="#191A23" stroke-width="12.1072" stroke-miterlimit="10"/>
<path d="M684.924 155.269V281.427L737.893 196.131V69.9836L684.924 155.269Z" stroke="#191A23" stroke-width="12.1072" stroke-miterlimit="10"/>
<path d="M684.924 -56.303V69.9838L737.893 -15.3998V-141.676L684.924 -56.303Z" stroke="#191A23" stroke-width="12.1072" stroke-miterlimit="10"/>
<path d="M1582.37 196.131L1635.12 281.427V155.269L1582.37 69.9834V196.131Z" stroke="#191A23" stroke-width="12.1072" stroke-miterlimit="10"/>
<path d="M1582.37 -15.4L1635.12 69.9835V-56.3033L1582.37 -141.676V-15.4Z" stroke="#191A23" stroke-width="12.1072" stroke-miterlimit="10"/>
<path d="M1529.62 155.269V281.427L1582.37 196.131V69.9836L1529.62 155.269Z" stroke="#191A23" stroke-width="12.1072" stroke-miterlimit="10"/>
<path d="M1529.62 -56.303V69.9838L1582.37 -15.3998V-141.676L1529.62 -56.303Z" stroke="#191A23" stroke-width="12.1072" stroke-miterlimit="10"/>
</g>
</g>
<defs>
<clipPath id="clip0_2906_1402">
<rect width="1920" height="117" fill="white" transform="translate(0 0.224854)"/>
</clipPath>
<clipPath id="clip1_2906_1402">
<rect width="2162" height="2162" fill="white" transform="translate(0 -1022.28)"/>
</clipPath>
</defs>
</svg>
